<?xml version="1.0" encoding="utf-8"?>
<svg xmlns="http://www.w3.org/2000/svg" xmlns:xlink="http://www.w3.org/1999/xlink" version="1.1" style="width:0;height:0;position:absolute;overflow:hidden;">
  <defs>
<symbol viewBox="0 0 1536 1280" aria-labelledby="bzsi-awesome-bars-title" id="si-awesome-bars"><title id="bzsi-awesome-bars-title">icon bars</title><path d="M1536 1088v128q0 26-19 45t-45 19H64q-26 0-45-19t-19-45v-128q0-26 19-45t45-19h1408q26 0 45 19t19 45zm0-512v128q0 26-19 45t-45 19H64q-26 0-45-19T0 704V576q0-26 19-45t45-19h1408q26 0 45 19t19 45zm0-512v128q0 26-19 45t-45 19H64q-26 0-45-19T0 192V64q0-26 19-45T64 0h1408q26 0 45 19t19 45z"/></symbol>
<symbol viewBox="0 0 1536 1536" aria-labelledby="etsi-awesome-check-circle-title" id="si-awesome-check-circle"><title id="etsi-awesome-check-circle-title">icon check-circle</title><path d="M1284 606q0-28-18-46l-91-90q-19-19-45-19t-45 19L677 877 451 651q-19-19-45-19t-45 19l-91 90q-18 18-18 46 0 27 18 45l362 362q19 19 45 19 27 0 46-19l543-543q18-18 18-45zm252 162q0 209-103 385.5T1153.5 1433 768 1536t-385.5-103T103 1153.5 0 768t103-385.5T382.5 103 768 0t385.5 103T1433 382.5 1536 768z"/></symbol>
<symbol viewBox="0 0 1536 1536" aria-labelledby="ibsi-awesome-exclamation-circle-title" id="si-awesome-exclamation-circle"><title id="ibsi-awesome-exclamation-circle-title">icon exclamation-circle</title><path d="M768 0q209 0 385.5 103T1433 382.5 1536 768t-103 385.5-279.5 279.5T768 1536t-385.5-103T103 1153.5 0 768t103-385.5T382.5 103 768 0zm128 1247v-190q0-14-9-23.5t-22-9.5H673q-13 0-23 10t-10 23v190q0 13 10 23t23 10h192q13 0 22-9.5t9-23.5zm-2-344l18-621q0-12-10-18-10-8-24-8H658q-14 0-24 8-10 6-10 18l17 621q0 10 10 17.5t24 7.5h185q14 0 23.5-7.5T894 903z"/></symbol>
<symbol viewBox="0 0 1806.666748046875 1664" aria-labelledby="icsi-awesome-exclamation-triangle-title" id="si-awesome-exclamation-triangle"><title id="icsi-awesome-exclamation-triangle-title">icon exclamation-triangle</title><path d="M1031.333 1375v-190q0-14-9.5-23.5t-22.5-9.5h-192q-13 0-22.5 9.5t-9.5 23.5v190q0 14 9.5 23.5t22.5 9.5h192q13 0 22.5-9.5t9.5-23.5zm-2-374l18-459q0-12-10-19-13-11-24-11h-220q-11 0-24 11-10 7-10 21l17 457q0 10 10 16.5t24 6.5h185q14 0 23.5-6.5t10.5-16.5zm-14-934l768 1408q35 63-2 126-17 29-46.5 46t-63.5 17h-1536q-34 0-63.5-17t-46.5-46q-37-63-2-126l768-1408q17-31 47-49t65-18 65 18 47 49z"/></symbol>
<symbol viewBox="0 0 1536 1792" aria-labelledby="jbsi-awesome-file-o-title" id="si-awesome-file-o"><title id="jbsi-awesome-file-o-title">icon file-o</title><path d="M1468 380q28 28 48 76t20 88v1152q0 40-28 68t-68 28H96q-40 0-68-28t-28-68V96q0-40 28-68T96 0h896q40 0 88 20t76 48zm-444-244v376h376q-10-29-22-41l-313-313q-12-12-41-22zm384 1528V640H992q-40 0-68-28t-28-68V128H128v1536h1280z"/></symbol>
<symbol viewBox="0 0 1664 1408" aria-labelledby="jusi-awesome-folder-o-title" id="si-awesome-folder-o"><title id="jusi-awesome-folder-o-title">icon folder-o</title><path d="M1536 1184V480q0-40-28-68t-68-28H736q-40 0-68-28t-28-68v-64q0-40-28-68t-68-28H224q-40 0-68 28t-28 68v960q0 40 28 68t68 28h1216q40 0 68-28t28-68zm128-704v704q0 92-66 158t-158 66H224q-92 0-158-66T0 1184V224q0-92 66-158T224 0h320q92 0 158 66t66 158v32h672q92 0 158 66t66 158z"/></symbol>
<symbol viewBox="0 0 1613.3333740234375 1283" aria-labelledby="masi-awesome-home-title" id="si-awesome-home"><title id="masi-awesome-home-title">icon home</title><path d="M1382.667 739v480q0 26-19 45t-45 19h-384V899h-256v384h-384q-26 0-45-19t-19-45V739q0-1 .5-3t.5-3l575-474 575 474q1 2 1 6zm223-69l-62 74q-8 9-21 11h-3q-13 0-21-7l-692-577-692 577q-12 8-24 7-13-2-21-11l-62-74q-8-10-7-23.5t11-21.5l719-599q32-26 76-26t76 26l244 204V35q0-14 9-23t23-9h192q14 0 23 9t9 23v408l219 182q10 8 11 21.5t-7 23.5z"/></symbol>
<symbol viewBox="0 0 1536 1536" aria-labelledby="mqsi-awesome-info-circle-title" id="si-awesome-info-circle"><title id="mqsi-awesome-info-circle-title">icon info-circle</title><path d="M1024 1248v-160q0-14-9-23t-23-9h-96V544q0-14-9-23t-23-9H544q-14 0-23 9t-9 23v160q0 14 9 23t23 9h96v320h-96q-14 0-23 9t-9 23v160q0 14 9 23t23 9h448q14 0 23-9t9-23zM896 352V192q0-14-9-23t-23-9H672q-14 0-23 9t-9 23v160q0 14 9 23t23 9h192q14 0 23-9t9-23zm640 416q0 209-103 385.5T1153.5 1433 768 1536t-385.5-103T103 1153.5 0 768t103-385.5T382.5 103 768 0t385.5 103T1433 382.5 1536 768z"/></symbol>
<symbol viewBox="0 0 1024 1536" aria-labelledby="nmsi-awesome-lightbulb-o-title" id="si-awesome-lightbulb-o"><title id="nmsi-awesome-lightbulb-o-title">icon lightbulb-o</title><path d="M736 448q0 13-9.5 22.5T704 480t-22.5-9.5T672 448q0-46-54-71t-106-25q-13 0-22.5-9.5T480 320t9.5-22.5T512 288q50 0 99.5 16t87 54 37.5 90zm160 0q0-72-34.5-134t-90-101.5-123-62T512 128t-136.5 22.5-123 62-90 101.5T128 448q0 101 68 180 10 11 30.5 33t30.5 33q128 153 141 298h228q13-145 141-298 10-11 30.5-33t30.5-33q68-79 68-180zm128 0q0 155-103 268-45 49-74.5 87T787 898.5 753 1006q47 28 47 82 0 37-25 64 25 27 25 64 0 52-45 81 13 23 13 47 0 46-31.5 71t-77.5 25q-20 44-60 70t-87 26-87-26-60-70q-46 0-77.5-25t-31.5-71q0-24 13-47-45-29-45-81 0-37 25-64-25-27-25-64 0-54 47-82-4-50-34-107.5T177.5 803 103 716Q0 603 0 448q0-99 44.5-184.5t117-142 164-89T512 0t186.5 32.5 164 89 117 142T1024 448z"/></symbol>
<symbol viewBox="0 0 1152 1792" aria-labelledby="pmsi-awesome-neuter-title" id="si-awesome-neuter"><title id="pmsi-awesome-neuter-title">icon neuter</title><path d="M1152 576q0 221-147.5 384.5T640 1148v612q0 14-9 23t-23 9h-64q-14 0-23-9t-9-23v-612q-217-24-364.5-187.5T0 576q0-117 45.5-223.5t123-184 184-123T576 0t223.5 45.5 184 123 123 184T1152 576zm-576 448q185 0 316.5-131.5T1024 576 892.5 259.5 576 128 259.5 259.5 128 576t131.5 316.5T576 1024z"/></symbol>
<symbol viewBox="0 0 1536 1536" aria-labelledby="qzsi-awesome-plus-circle-title" id="si-awesome-plus-circle"><title id="qzsi-awesome-plus-circle-title">icon plus-circle</title><path d="M1216 832V704q0-26-19-45t-45-19H896V384q0-26-19-45t-45-19H704q-26 0-45 19t-19 45v256H384q-26 0-45 19t-19 45v128q0 26 19 45t45 19h256v256q0 26 19 45t45 19h128q26 0 45-19t19-45V896h256q26 0 45-19t19-45zm320-64q0 209-103 385.5T1153.5 1433 768 1536t-385.5-103T103 1153.5 0 768t103-385.5T382.5 103 768 0t385.5 103T1433 382.5 1536 768z"/></symbol>
<symbol viewBox="0 0 1536 1536" aria-labelledby="rksi-awesome-question-circle-o-title" id="si-awesome-question-circle-o"><title id="rksi-awesome-question-circle-o-title">icon question-circle-o</title><path d="M880 1072v160q0 14-9 23t-23 9H688q-14 0-23-9t-9-23v-160q0-14 9-23t23-9h160q14 0 23 9t9 23zm256-496q0 50-15 90t-45.5 69-52 44-59.5 36q-32 18-46.5 28t-26 24-11.5 29v32q0 14-9 23t-23 9H688q-14 0-23-9t-9-23v-68q0-35 10.5-64.5t24-47.5 39-35.5 41-25.5 44.5-21q53-25 75-43t22-49q0-42-43.5-71.5T773 473q-56 0-95 27-29 20-80 83-9 12-25 12-11 0-19-6l-108-82q-10-7-12-20t5-23q122-192 349-192 129 0 238.5 89.5T1136 576zM768 128q-130 0-248.5 51t-204 136.5-136.5 204T128 768t51 248.5 136.5 204 204 136.5 248.5 51 248.5-51 204-136.5 136.5-204 51-248.5-51-248.5-136.5-204-204-136.5T768 128zm768 640q0 209-103 385.5T1153.5 1433 768 1536t-385.5-103T103 1153.5 0 768t103-385.5T382.5 103 768 0t385.5 103T1433 382.5 1536 768z"/></symbol>
<symbol viewBox="0 0 1664 1664" aria-labelledby="sfsi-awesome-search-title" id="si-awesome-search"><title id="sfsi-awesome-search-title">icon search</title><path d="M1152 704q0-185-131.5-316.5T704 256 387.5 387.5 256 704t131.5 316.5T704 1152t316.5-131.5T1152 704zm512 832q0 52-38 90t-90 38q-54 0-90-38l-343-342q-179 124-399 124-143 0-273.5-55.5t-225-150-150-225T0 704t55.5-273.5 150-225 225-150T704 0t273.5 55.5 225 150 150 225T1408 704q0 220-124 399l343 343q37 37 37 90z"/></symbol>
<symbol viewBox="0 0 1664 1587" aria-labelledby="ubsi-awesome-star-title" id="si-awesome-star"><title id="ubsi-awesome-star-title">icon star</title><path d="M1664 615q0 22-26 48l-363 354 86 500q1 7 1 20 0 21-10.5 35.5T1321 1587q-19 0-40-12l-449-236-449 236q-22 12-40 12-21 0-31.5-14.5T301 1537q0-6 2-20l86-500L25 663Q0 636 0 615q0-37 56-46l502-73L783 41q19-41 49-41t49 41l225 455 502 73q56 9 56 46z"/></symbol>
  </defs>
</svg>
